HIERARCHY
ROOT Hips
{
    OFFSET 0.000000 0.000000 0.000000
    CHANNELS 6 Xposition Yposition Zposition Zrotation Xrotation Yrotation
    JOINT Spine
    {
        OFFSET -0.000000 14.517291 0.000000
        CHANNELS 3 Zrotation Xrotation Yrotation
        JOINT Spine1
        {
            OFFSET -0.000000 37.558300 0.000000
            CHANNELS 3 Zrotation Xrotation Yrotation
            JOINT Neck
            {
                OFFSET -0.000000 37.404057 3.400369
                CHANNELS 3 Zrotation Xrotation Yrotation
                JOINT Head
                {
                    OFFSET -0.000000 24.785618 -3.540803
                    CHANNELS 3 Zrotation Xrotation Yrotation
                    End Site
                    {
                        OFFSET -0.000000 35.408028 0.000000
                    }
                }
            }
            JOINT LeftShoulder
            {
                OFFSET 6.992933 33.973492 -0.192664
                CHANNELS 3 Zrotation Xrotation Yrotation
                JOINT LeftArm
                {
                    OFFSET 21.527611 0.000000 0.000000
                    CHANNELS 3 Zrotation Xrotation Yrotation
                    JOINT LeftForeArm
                    {
                        OFFSET 56.353916 0.000000 0.000000
                        CHANNELS 3 Zrotation Xrotation Yrotation
                        JOINT LeftHand
                        {
                            OFFSET 47.774071 0.000000 0.000000
                            CHANNELS 3 Zrotation Xrotation Yrotation
                            End Site
                            {
                                OFFSET 26.556021 0.000000 0.000000
                            }
                        }
                    }
                }
            }
            JOINT RightShoulder
            {
                OFFSET -7.065357 33.973492 -0.192664
                CHANNELS 3 Zrotation Xrotation Yrotation
                JOINT RightArm
                {
                    OFFSET -21.527611 0.000000 0.000000
                    CHANNELS 3 Zrotation Xrotation Yrotation
                    JOINT RightForeArm
                    {
                        OFFSET -56.353916 0.000000 0.000000
                        CHANNELS 3 Zrotation Xrotation Yrotation
                        JOINT RightHand
                        {
                            OFFSET -47.774071 0.000000 0.000000
                            CHANNELS 3 Zrotation Xrotation Yrotation
                            End Site
                            {
                                OFFSET -26.556021 0.000000 0.000000
                            }
                        }
                    }
                }
            }
        }
    }
    JOINT LeftUpLeg
    {
        OFFSET 17.704014 0.000000 0.000000
        CHANNELS 3 Zrotation Xrotation Yrotation
        JOINT LeftLeg
        {
            OFFSET -0.000000 -81.181816 0.000000
            CHANNELS 3 Zrotation Xrotation Yrotation
            JOINT LeftFoot
            {
                OFFSET -0.000000 -62.821102 0.000000
                CHANNELS 3 Zrotation Xrotation Yrotation
                JOINT LeftToeBase
                {
                    OFFSET -0.000000 -11.507608 26.556021
                    CHANNELS 3 Zrotation Xrotation Yrotation
                    End Site
                    {
                        OFFSET -0.000000 0.000000 7.081605
                    }
                }
            }
        }
    }
    JOINT RightUpLeg
    {
        OFFSET -17.704014 0.000000 0.000000
        CHANNELS 3 Zrotation Xrotation Yrotation
        JOINT RightLeg
        {
            OFFSET -0.000000 -81.181816 0.000000
            CHANNELS 3 Zrotation Xrotation Yrotation
            JOINT RightFoot
            {
                OFFSET -0.000000 -62.821102 0.000000
                CHANNELS 3 Zrotation Xrotation Yrotation
                JOINT RightToeBase
                {
                    OFFSET -0.000000 -11.507608 26.556021
                    CHANNELS 3 Zrotation Xrotation Yrotation
                    End Site
                    {
                        OFFSET -0.000000 0.000000 7.081605
                    }
                }
            }
        }
    }
}
MOTION
Frames:    4
Frame Time:    0.008333
14.248526    154.913788    -117.262627    -0.332977    -5.566891    39.131989    1.413406    -3.486067    2.124615    -6.972627    2.879490    0.867244    -4.835684    -6.353818    -24.142178    16.571924    12.209686    -23.721279    6.005205    7.809896    -27.181154    -27.288975    25.517506    -58.043602    -17.268463    -0.332306    -81.726494    5.446789    -15.708267    -9.144346    -12.245178    2.333797    2.438209    40.672340    15.538319    98.114616    -36.057606    -41.810917    56.815174    3.869959    -24.325666    18.532291    18.131287    0.685389    1.299177    -13.557259    33.889473    -18.053389    4.571338    -29.038919    45.011551    0.000000    0.000000    0.000000    -16.798555    -18.274305    -11.221659    9.240401    23.556892    -14.617842    4.225615    9.006829    -13.431568    0.000000    0.000000    0.000000    
14.297986    154.909805    -117.258858    -0.317710    -5.571862    39.110149    1.411777    -3.505927    2.188493    -6.963168    2.921726    0.890783    -4.824119    -6.401517    -24.171328    16.536785    12.240407    -23.757881    6.018961    7.833796    -27.188187    -27.312778    25.629032    -58.141525    -17.155590    -0.477846    -81.771141    5.414518    -15.758531    -9.122071    -12.221944    2.442812    2.434378    40.633320    16.030975    98.183701    -36.004116    -41.898441    57.435032    3.932353    -24.209686    18.476500    18.106091    0.731923    1.294239    -13.557594    33.865108    -18.046900    4.576125    -29.056013    45.016827    0.000000    0.000000    0.000000    -16.806185    -18.261490    -11.196768    9.226516    23.562103    -14.611734    4.235275    9.002956    -13.431921    0.000000    0.000000    0.000000    
14.344475    154.904816    -117.259193    -0.299627    -5.570458    39.082527    1.393098    -3.546171    2.257871    -6.922509    3.007128    0.918069    -4.857137    -6.489952    -24.215254    16.517521    12.315478    -23.805252    6.016186    7.817280    -27.198750    -27.357111    25.716341    -58.220844    -17.096384    -0.564576    -81.806152    5.492547    -15.805791    -9.124567    -12.232074    2.512866    2.428896    40.556099    16.483686    98.256065    -35.957321    -42.018909    58.005295    3.863020    -24.172819    18.294235    18.070339    0.768169    1.313328    -13.546171    33.862503    -18.051432    4.595276    -29.073158    45.030640    0.000000    0.000000    0.000000    -16.819269    -18.258202    -11.139990    9.228262    23.566948    -14.610948    4.253907    8.994643    -13.467236    0.000000    0.000000    0.000000    
14.391798    154.898163    -117.257179    -0.280897    -5.567928    39.066467    1.388115    -3.611374    2.308043    -6.918042    3.128823    0.941914    -4.869729    -6.582869    -24.246923    16.502790    12.392861    -23.843929    6.031917    7.797763    -27.187866    -27.382725    25.778746    -58.310627    -17.046762    -0.627946    -81.833725    5.548858    -15.834092    -9.101280    -12.217705    2.588569    2.468182    40.484463    16.942814    98.411964    -36.130577    -42.155678    58.355728    3.929347    -24.094404    18.150948    18.033758    0.798337    1.324526    -13.526817    33.862968    -18.073673    4.615046    -29.083849    45.043526    0.000000    0.000000    0.000000    -16.838902    -18.250818    -11.103970    9.225175    23.577400    -14.614098    4.263623    8.977207    -13.472321    0.000000    0.000000    0.000000    
